<svg
  width="100%"
  height="100%"
  viewBox="0 0 2031 418" 
  fill="#F6F6F1"
  xmlns="http://www.w3.org/2000/svg"
>
  <path clip-rule="evenodd" fill-rule="evenodd" d="M265 318c48.756 0 93.333 3.851 126.105 10.255 16.255 3.176 30.432 7.136 40.931 11.986 5.204 2.404 10.377 5.419 14.479 9.335C450.625 353.501 455 359.694 455 368s-4.375 14.499-8.485 18.424c-4.102 3.916-9.275 6.931-14.479 9.335-10.499 4.85-24.676 8.81-40.931 11.986C358.333 414.149 313.756 418 265 418s-93.332-3.851-126.104-10.255c-16.255-3.176-30.433-7.136-40.932-11.986-5.204-2.404-10.377-5.419-14.479-9.335-3.981-3.802-8.212-9.733-8.472-17.652L75 368l.013-.772c.26-7.919 4.49-13.85 8.472-17.652 4.102-3.916 9.275-6.931 14.479-9.335 10.499-4.85 24.677-8.81 40.932-11.986C171.668 321.851 216.244 318 265 318Zm0 32c-47.341 0-89.764 3.759-119.968 9.661-13.243 2.588-23.516 5.471-30.646 8.339 7.13 2.868 17.403 5.751 30.646 8.339C175.236 382.241 217.659 386 265 386c47.341 0 89.764-3.759 119.968-9.661 13.242-2.588 23.515-5.472 30.645-8.339-7.13-2.867-17.403-5.751-30.645-8.339C354.764 353.759 312.341 350 265 350ZM265 158c69.265 0 132.294 3.941 178.297 10.407 22.881 3.216 42.224 7.148 56.182 11.786 6.871 2.284 13.397 5.045 18.521 8.565 4.489 3.083 12 9.618 12 20.242s-7.511 17.159-12 20.242c-5.124 3.52-11.65 6.281-18.521 8.565-13.958 4.638-33.301 8.57-56.182 11.786C397.294 256.059 334.265 260 265 260s-132.294-3.941-178.297-10.407c-22.881-3.216-42.224-7.148-56.181-11.786-6.872-2.284-13.398-5.045-18.522-8.565C7.51 226.159 0 219.624 0 209s7.51-17.159 12-20.242c5.124-3.52 11.65-6.281 18.521-8.565 13.958-4.638 33.3-8.57 56.182-11.786C132.706 161.941 195.735 158 265 158Zm0 32c-68.254 0-129.725 3.894-173.843 10.096-19.073 2.681-34.407 5.727-45.477 8.904 11.07 3.177 26.404 6.223 45.477 8.904C135.275 224.106 196.746 228 265 228c68.254 0 129.725-3.894 173.843-10.096 19.073-2.681 34.406-5.727 45.476-8.904-11.07-3.177-26.403-6.223-45.476-8.904C394.725 193.894 333.254 190 265 190ZM265 0c48.756 0 93.333 3.851 126.105 10.255 16.255 3.176 30.432 7.136 40.931 11.986 5.204 2.404 10.377 5.419 14.479 9.335C450.625 35.501 455 41.694 455 50s-4.375 14.499-8.485 18.424c-4.102 3.916-9.275 6.93-14.479 9.335-10.499 4.85-24.676 8.81-40.931 11.986C358.333 96.15 313.756 100 265 100s-93.332-3.851-126.104-10.255c-16.255-3.176-30.433-7.136-40.932-11.986-5.204-2.404-10.377-5.419-14.479-9.335C79.375 64.499 75 58.306 75 50s4.375-14.499 8.485-18.424c4.102-3.916 9.275-6.93 14.479-9.335 10.499-4.85 24.677-8.81 40.932-11.986C171.668 3.85 216.244 0 265 0Zm0 32c-47.341 0-89.764 3.76-119.968 9.661-13.243 2.588-23.516 5.471-30.646 8.339 7.13 2.868 17.403 5.751 30.646 8.339C175.236 64.24 217.659 68 265 68c47.341 0 89.764-3.76 119.968-9.661 13.242-2.588 23.515-5.472 30.645-8.339-7.13-2.867-17.403-5.751-30.645-8.339C354.764 35.76 312.341 32 265 32ZM1264.27 106.373c25.08 0 46.6 6.486 64.57 19.459 11.89 8.517 21.88 19.305 29.98 32.362v-44.903h61.7v297.507h-61.7v-44.527c-8.02 12.832-17.87 23.495-29.54 31.987-17.97 12.972-39.64 19.459-65.01 19.459-26.14 0-49.06-6.343-68.76-19.028-19.6-12.78-34.78-30.894-45.55-54.34-10.66-23.543-16-50.978-16-82.304s5.34-58.713 16-82.16c10.77-23.543 25.95-41.658 45.55-54.342 19.7-12.78 42.62-19.17 68.76-19.17Zm14.99 53.908c-16.05 0-30.03 4.18-41.95 12.54-11.91 8.264-21.09 20.18-27.53 35.747-6.44 15.568-9.66 34.066-9.66 55.494 0 21.333 3.22 39.495 9.66 54.486 6.44 14.894 15.57 26.185 27.39 33.873 11.91 7.687 25.95 11.531 42.09 11.531 16.24 0 30.32-3.988 42.23-11.964 11.92-8.072 21.09-19.747 27.53-35.026 6.44-15.279 9.66-33.537 9.66-54.774 0-21.332-3.22-39.638-9.66-54.917-6.44-15.278-15.61-26.907-27.53-34.882-11.91-8.072-25.99-12.108-42.23-12.108ZM1887.49 106.373c29.5 0 55.06 6.727 76.68 20.18 21.62 13.453 38.1 31.999 49.44 55.637 11.44 23.543 17.15 50.305 17.15 80.287 0 2.978-.05 6.102-.14 9.369 0 3.171-.1 6.534-.29 10.09h-223.51c1.16 15.916 4.36 29.609 9.61 41.08 6.72 14.606 16.28 25.513 28.68 32.72 12.4 7.207 27.15 10.811 44.25 10.811 12.4 0 23.4-1.922 33.01-5.766 9.61-3.843 17.58-9.273 23.93-16.288 6.43-7.111 11.24-15.615 14.41-25.513h62.99c-5 19.7-13.55 36.997-25.66 51.891-12.1 14.798-27.48 26.33-46.12 34.594-18.55 8.168-39.69 12.252-63.42 12.252-28.64 0-54.01-6.295-76.11-18.883-22.01-12.588-39.11-30.606-51.31-54.053-12.11-23.447-18.17-50.978-18.17-82.593 0-30.845 5.96-58.04 17.88-81.583 12.01-23.638 28.92-41.896 50.73-54.773 21.82-12.973 47.14-19.459 75.97-19.459Zm-.72 51.746c-16.05 0-30.08 3.652-42.09 10.955-11.92 7.207-21.24 18.21-27.97 33.008-4.35 9.514-7.33 20.517-8.95 33.008h157.58c-1.26-12.302-4.2-23.497-8.81-33.584-6.05-13.549-14.99-24.168-26.81-31.856-11.82-7.687-26.14-11.531-42.95-11.531Z"/>
  <path d="m680.341.285 62.845 237.256c4.228 17.009 8.792 36.468 13.693 58.377a6469.016 6469.016 0 0 1 8.007 36.321c3.255-15.313 6.206-29.102 8.858-41.366 4.613-21.429 8.793-39.591 12.54-54.485L848.408.285h71.782l62.702 236.535a3227.27 3227.27 0 0 1 14.414 63.133 3195.277 3195.277 0 0 1 7.094 32.649c2.8-12.896 5.39-24.692 7.75-35.387 4.52-20.084 9.13-40.215 13.84-60.395L1087.97.285h70.63l-114.59 410.513h-75.676l-66.882-251.814a9414.407 9414.407 0 0 1-12.684-52.9 3889.346 3889.346 0 0 1-4.164-18.278 1767.835 1767.835 0 0 1-3.764 16.837 1521.17 1521.17 0 0 1-13.116 53.764l-67.458 252.391h-75.53L610 .285h70.341ZM1580.89 283.666c5.76 17.681 11.05 34.545 15.85 50.593 1.45 4.727 2.92 9.632 4.41 14.714 1.25-4.244 2.52-8.475 3.81-12.696 5.28-17.296 10.9-34.978 16.86-53.044l60.11-169.942h67.6l-114.01 297.507h-70.49l-114.01-297.507h69.33l60.54 170.375Z"/>
</svg>