<svg width="100%" height="100%" viewBox="0 0 256 256" fill="none" xmlns="http://www.w3.org/2000/svg">
<rect width="256" height="256" rx="66.56" fill="#020917"/>
<path d="M128 85.7422C160.033 85.7422 186 80.3696 186 73.7422C186 67.1148 160.033 61.7422 128 61.7422C95.9675 61.7422 70 67.1148 70 73.7422C70 80.3696 95.9675 85.7422 128 85.7422Z" stroke="#F6F6F1" stroke-width="11"/>
<path d="M128 139.742C174.392 139.742 212 134.37 212 127.742C212 121.115 174.392 115.742 128 115.742C81.6081 115.742 44 121.115 44 127.742C44 134.37 81.6081 139.742 128 139.742Z" stroke="#F6F6F1" stroke-width="11"/>
<path d="M128 193.742C160.033 193.742 186 188.37 186 181.742C186 175.115 160.033 169.742 128 169.742C95.9675 169.742 70 175.115 70 181.742C70 188.37 95.9675 193.742 128 193.742Z" stroke="#F6F6F1" stroke-width="11"/>
</svg>
